<svg width="48" height="48" viewBox="0 0 48 48" fill="none" xmlns="http://www.w3.org/2000/svg">
<g clip-path="url(#clip0_356_730)">
<path d="M19 41C19.5523 41 20 40.5523 20 40V30C20 29.4477 20.4477 29 21 29H27C27.5523 29 28 29.4477 28 30V40C28 40.5523 28.4477 41 29 41H37C37.5523 41 38 40.5523 38 40V26C38 25.4477 38.4477 25 39 25H41.394C42.3105 25 42.7442 23.8698 42.063 23.2567L24.669 7.60207C24.2887 7.25979 23.7113 7.25979 23.331 7.60207L5.937 23.2567C5.25578 23.8698 5.68947 25 6.60596 25H9C9.55228 25 10 25.4477 10 26V40C10 40.5523 10.4477 41 11 41H19Z" fill="#009302" fill-opacity="0.7"/>
</g>
<defs>
<clipPath id="clip0_356_730">
<rect width="48" height="48" fill="white"/>
</clipPath>
</defs>
</svg>
