<svg width="76" height="72" viewBox="0 0 76 72" fill="none" xmlns="http://www.w3.org/2000/svg">
<g filter="url(#filter0_dddddd_383_1343)">
<path d="M33 53C33.5523 53 34 52.5523 34 52V42C34 41.4477 34.4477 41 35 41H41C41.5523 41 42 41.4477 42 42V52C42 52.5523 42.4477 53 43 53H51C51.5523 53 52 52.5523 52 52V38C52 37.4477 52.4477 37 53 37H55.394C56.3105 37 56.7442 35.8698 56.063 35.2567L38.669 19.6021C38.2887 19.2598 37.7113 19.2598 37.331 19.6021L19.937 35.2567C19.2558 35.8698 19.6895 37 20.606 37H23C23.5523 37 24 37.4477 24 38V52C24 52.5523 24.4477 53 25 53H33Z" fill="#009302" fill-opacity="0.7"/>
<path d="M33 53C33.5523 53 34 52.5523 34 52V42C34 41.4477 34.4477 41 35 41H41C41.5523 41 42 41.4477 42 42V52C42 52.5523 42.4477 53 43 53H51C51.5523 53 52 52.5523 52 52V38C52 37.4477 52.4477 37 53 37H55.394C56.3105 37 56.7442 35.8698 56.063 35.2567L38.669 19.6021C38.2887 19.2598 37.7113 19.2598 37.331 19.6021L19.937 35.2567C19.2558 35.8698 19.6895 37 20.606 37H23C23.5523 37 24 37.4477 24 38V52C24 52.5523 24.4477 53 25 53H33Z" stroke="#04CD07" stroke-linecap="square" stroke-linejoin="round"/>
</g>
<defs>
<filter id="filter0_dddddd_383_1343" x="0.686565" y="0.428997" width="74.6269" height="71.4874" filterUnits="userSpaceOnUse" color-interpolation-filters="sRGB">
<feFlood flood-opacity="0" result="BackgroundImageFix"/>
<feColorMatrix in="SourceAlpha" type="matrix" values="0 0 0 0 0 0 0 0 0 0 0 0 0 0 0 0 0 0 127 0" result="hardAlpha"/>
<feOffset/>
<feGaussianBlur stdDeviation="0.219243"/>
<feColorMatrix type="matrix" values="0 0 0 0 0.105882 0 0 0 0 0.560784 0 0 0 0 0.0980392 0 0 0 1 0"/>
<feBlend mode="normal" in2="BackgroundImageFix" result="effect1_dropShadow_383_1343"/>
<feColorMatrix in="SourceAlpha" type="matrix" values="0 0 0 0 0 0 0 0 0 0 0 0 0 0 0 0 0 0 127 0" result="hardAlpha"/>
<feOffset/>
<feGaussianBlur stdDeviation="0.438485"/>
<feColorMatrix type="matrix" values="0 0 0 0 0.105882 0 0 0 0 0.560784 0 0 0 0 0.0980392 0 0 0 1 0"/>
<feBlend mode="normal" in2="effect1_dropShadow_383_1343" result="effect2_dropShadow_383_1343"/>
<feColorMatrix in="SourceAlpha" type="matrix" values="0 0 0 0 0 0 0 0 0 0 0 0 0 0 0 0 0 0 127 0" result="hardAlpha"/>
<feOffset/>
<feGaussianBlur stdDeviation="1.5347"/>
<feColorMatrix type="matrix" values="0 0 0 0 0.105882 0 0 0 0 0.560784 0 0 0 0 0.0980392 0 0 0 1 0"/>
<feBlend mode="normal" in2="effect2_dropShadow_383_1343" result="effect3_dropShadow_383_1343"/>
<feColorMatrix in="SourceAlpha" type="matrix" values="0 0 0 0 0 0 0 0 0 0 0 0 0 0 0 0 0 0 127 0" result="hardAlpha"/>
<feOffset/>
<feGaussianBlur stdDeviation="3.0694"/>
<feColorMatrix type="matrix" values="0 0 0 0 0.105882 0 0 0 0 0.560784 0 0 0 0 0.0980392 0 0 0 1 0"/>
<feBlend mode="normal" in2="effect3_dropShadow_383_1343" result="effect4_dropShadow_383_1343"/>
<feColorMatrix in="SourceAlpha" type="matrix" values="0 0 0 0 0 0 0 0 0 0 0 0 0 0 0 0 0 0 127 0" result="hardAlpha"/>
<feOffset/>
<feGaussianBlur stdDeviation="5.26182"/>
<feColorMatrix type="matrix" values="0 0 0 0 0.105882 0 0 0 0 0.560784 0 0 0 0 0.0980392 0 0 0 1 0"/>
<feBlend mode="normal" in2="effect4_dropShadow_383_1343" result="effect5_dropShadow_383_1343"/>
<feColorMatrix in="SourceAlpha" type="matrix" values="0 0 0 0 0 0 0 0 0 0 0 0 0 0 0 0 0 0 127 0" result="hardAlpha"/>
<feOffset/>
<feGaussianBlur stdDeviation="9.20819"/>
<feColorMatrix type="matrix" values="0 0 0 0 0.105882 0 0 0 0 0.560784 0 0 0 0 0.0980392 0 0 0 1 0"/>
<feBlend mode="normal" in2="effect5_dropShadow_383_1343" result="effect6_dropShadow_383_1343"/>
<feBlend mode="normal" in="SourceGraphic" in2="effect6_dropShadow_383_1343" result="shape"/>
</filter>
</defs>
</svg>
