<svg width="76" height="73" viewBox="0 0 76 73" fill="none" xmlns="http://www.w3.org/2000/svg">
<g filter="url(#filter0_dddddd_383_1344)">
<path fill-rule="evenodd" clip-rule="evenodd" d="M53.714 24.3843L53.8434 23.9014C53.9863 23.3679 54.5347 23.0513 55.0681 23.1943L56.0341 23.4531C56.5675 23.596 56.8841 24.1444 56.7412 24.6778L56.6118 25.1608L54.5412 32.8882C54.3268 33.6884 53.5043 34.1633 52.7041 33.9488L52.2806 33.8354C52.1992 33.8206 52.1196 33.7992 52.0424 33.7716L44.9767 31.8783L44.4937 31.7489C43.9603 31.6059 43.6437 31.0576 43.7866 30.5241L44.0454 29.5582C44.1884 29.0247 44.7367 28.7082 45.2702 28.8511L45.7532 28.9805L50.1296 30.1532C49.0811 27.9996 47.5086 26.1256 45.5383 24.7137C42.8115 22.7597 39.4915 21.8117 36.144 22.0311C32.7966 22.2505 29.6287 23.6238 27.1803 25.917C24.7319 28.2102 23.1543 31.2814 22.7164 34.6074C22.2786 37.9333 23.0075 41.3082 24.7789 44.157C26.5504 47.0057 29.2549 49.1521 32.4315 50.2305C35.6081 51.3088 39.0604 51.2523 42.2 50.0706C45.3396 48.8889 47.9724 46.6552 49.6497 43.75L49.8997 43.317C50.1759 42.8387 50.7875 42.6748 51.2658 42.9509L52.1318 43.4509C52.6101 43.7271 52.774 44.3387 52.4978 44.817L52.2478 45.25C50.2235 48.7563 47.046 51.4522 43.2567 52.8783C39.4675 54.3045 35.301 54.3727 31.4672 53.0712C27.6333 51.7698 24.3693 49.1793 22.2313 45.7412C20.0933 42.303 19.2136 38.2299 19.7421 34.2158C20.2706 30.2017 22.1745 26.4951 25.1295 23.7274C28.0845 20.9597 31.9078 19.3023 35.9478 19.0375C39.9879 18.7727 43.9948 19.9169 47.2857 22.2752C49.5414 23.8916 51.3652 26.0098 52.6268 28.4419L53.714 24.3843Z" fill="#009302" fill-opacity="0.7"/>
<path fill-rule="evenodd" clip-rule="evenodd" d="M53.714 24.3843L53.8434 23.9014C53.9863 23.3679 54.5347 23.0513 55.0681 23.1943L56.0341 23.4531C56.5675 23.596 56.8841 24.1444 56.7412 24.6778L56.6118 25.1608L54.5412 32.8882C54.3268 33.6884 53.5043 34.1633 52.7041 33.9488L52.2806 33.8354C52.1992 33.8206 52.1196 33.7992 52.0424 33.7716L44.9767 31.8783L44.4937 31.7489C43.9603 31.6059 43.6437 31.0576 43.7866 30.5241L44.0454 29.5582C44.1884 29.0247 44.7367 28.7082 45.2702 28.8511L45.7532 28.9805L50.1296 30.1532C49.0811 27.9996 47.5086 26.1256 45.5383 24.7137C42.8115 22.7597 39.4915 21.8117 36.144 22.0311C32.7966 22.2505 29.6287 23.6238 27.1803 25.917C24.7319 28.2102 23.1543 31.2814 22.7164 34.6074C22.2786 37.9333 23.0075 41.3082 24.7789 44.157C26.5504 47.0057 29.2549 49.1521 32.4315 50.2305C35.6081 51.3088 39.0604 51.2523 42.2 50.0706C45.3396 48.8889 47.9724 46.6552 49.6497 43.75L49.8997 43.317C50.1759 42.8387 50.7875 42.6748 51.2658 42.9509L52.1318 43.4509C52.6101 43.7271 52.774 44.3387 52.4978 44.817L52.2478 45.25C50.2235 48.7563 47.046 51.4522 43.2567 52.8783C39.4675 54.3045 35.301 54.3727 31.4672 53.0712C27.6333 51.7698 24.3693 49.1793 22.2313 45.7412C20.0933 42.303 19.2136 38.2299 19.7421 34.2158C20.2706 30.2017 22.1745 26.4951 25.1295 23.7274C28.0845 20.9597 31.9078 19.3023 35.9478 19.0375C39.9879 18.7727 43.9948 19.9169 47.2857 22.2752C49.5414 23.8916 51.3652 26.0098 52.6268 28.4419L53.714 24.3843Z" stroke="#04CD07" stroke-linecap="square" stroke-linejoin="round"/>
</g>
<defs>
<filter id="filter0_dddddd_383_1344" x="0.675976" y="0.0836296" width="75.016" height="72.8327" filterUnits="userSpaceOnUse" color-interpolation-filters="sRGB">
<feFlood flood-opacity="0" result="BackgroundImageFix"/>
<feColorMatrix in="SourceAlpha" type="matrix" values="0 0 0 0 0 0 0 0 0 0 0 0 0 0 0 0 0 0 127 0" result="hardAlpha"/>
<feOffset/>
<feGaussianBlur stdDeviation="0.219243"/>
<feColorMatrix type="matrix" values="0 0 0 0 0.105882 0 0 0 0 0.560784 0 0 0 0 0.0980392 0 0 0 1 0"/>
<feBlend mode="normal" in2="BackgroundImageFix" result="effect1_dropShadow_383_1344"/>
<feColorMatrix in="SourceAlpha" type="matrix" values="0 0 0 0 0 0 0 0 0 0 0 0 0 0 0 0 0 0 127 0" result="hardAlpha"/>
<feOffset/>
<feGaussianBlur stdDeviation="0.438485"/>
<feColorMatrix type="matrix" values="0 0 0 0 0.105882 0 0 0 0 0.560784 0 0 0 0 0.0980392 0 0 0 1 0"/>
<feBlend mode="normal" in2="effect1_dropShadow_383_1344" result="effect2_dropShadow_383_1344"/>
<feColorMatrix in="SourceAlpha" type="matrix" values="0 0 0 0 0 0 0 0 0 0 0 0 0 0 0 0 0 0 127 0" result="hardAlpha"/>
<feOffset/>
<feGaussianBlur stdDeviation="1.5347"/>
<feColorMatrix type="matrix" values="0 0 0 0 0.105882 0 0 0 0 0.560784 0 0 0 0 0.0980392 0 0 0 1 0"/>
<feBlend mode="normal" in2="effect2_dropShadow_383_1344" result="effect3_dropShadow_383_1344"/>
<feColorMatrix in="SourceAlpha" type="matrix" values="0 0 0 0 0 0 0 0 0 0 0 0 0 0 0 0 0 0 127 0" result="hardAlpha"/>
<feOffset/>
<feGaussianBlur stdDeviation="3.0694"/>
<feColorMatrix type="matrix" values="0 0 0 0 0.105882 0 0 0 0 0.560784 0 0 0 0 0.0980392 0 0 0 1 0"/>
<feBlend mode="normal" in2="effect3_dropShadow_383_1344" result="effect4_dropShadow_383_1344"/>
<feColorMatrix in="SourceAlpha" type="matrix" values="0 0 0 0 0 0 0 0 0 0 0 0 0 0 0 0 0 0 127 0" result="hardAlpha"/>
<feOffset/>
<feGaussianBlur stdDeviation="5.26182"/>
<feColorMatrix type="matrix" values="0 0 0 0 0.105882 0 0 0 0 0.560784 0 0 0 0 0.0980392 0 0 0 1 0"/>
<feBlend mode="normal" in2="effect4_dropShadow_383_1344" result="effect5_dropShadow_383_1344"/>
<feColorMatrix in="SourceAlpha" type="matrix" values="0 0 0 0 0 0 0 0 0 0 0 0 0 0 0 0 0 0 127 0" result="hardAlpha"/>
<feOffset/>
<feGaussianBlur stdDeviation="9.20819"/>
<feColorMatrix type="matrix" values="0 0 0 0 0.105882 0 0 0 0 0.560784 0 0 0 0 0.0980392 0 0 0 1 0"/>
<feBlend mode="normal" in2="effect5_dropShadow_383_1344" result="effect6_dropShadow_383_1344"/>
<feBlend mode="normal" in="SourceGraphic" in2="effect6_dropShadow_383_1344" result="shape"/>
</filter>
</defs>
</svg>
