<svg width="48" height="48" viewBox="0 0 48 48" fill="none" xmlns="http://www.w3.org/2000/svg">
<path fill-rule="evenodd" clip-rule="evenodd" d="M40.6216 11.8843L40.751 11.4014C40.894 10.8679 41.4423 10.5513 41.9758 10.6943L42.9417 10.9531C43.4752 11.096 43.7917 11.6444 43.6488 12.1778L43.5194 12.6608L41.4488 20.3882C41.2344 21.1884 40.4119 21.6633 39.6117 21.4488L39.1882 21.3354C39.1068 21.3206 39.0272 21.2992 38.95 21.2716L31.8843 19.3783L31.4014 19.2489C30.8679 19.1059 30.5513 18.5576 30.6943 18.0241L30.9531 17.0582C31.096 16.5247 31.6443 16.2082 32.1778 16.3511L32.6608 16.4805L37.0372 17.6532C35.9888 15.4996 34.4162 13.6256 32.4459 12.2137C29.7191 10.2597 26.3991 9.31166 23.0517 9.53106C19.7042 9.75047 16.5364 11.1238 14.0879 13.417C11.6395 15.7102 10.0619 18.7814 9.62406 22.1074C9.18619 25.4333 9.91509 28.8082 11.6866 31.657C13.4581 34.5057 16.1625 36.6521 19.3391 37.7305C22.5157 38.8088 25.968 38.7523 29.1076 37.5706C32.2473 36.3889 34.88 34.1552 36.5574 31.25L36.8074 30.817C37.0835 30.3387 37.6951 30.1748 38.1734 30.4509L39.0394 30.9509C39.5177 31.2271 39.6816 31.8387 39.4054 32.317L39.1554 32.75C37.1311 36.2563 33.9536 38.9522 30.1644 40.3783C26.3752 41.8045 22.2087 41.8727 18.3748 40.5712C14.541 39.2698 11.277 36.6793 9.13897 33.2412C7.00097 29.803 6.12126 25.7299 6.64972 21.7158C7.17819 17.7017 9.08213 13.9951 12.0371 11.2274C14.9922 8.45972 18.8154 6.80228 22.8555 6.53748C26.8955 6.27269 30.9024 7.41691 34.1934 9.77519C36.4491 11.3916 38.2728 13.5098 39.5344 15.9419L40.6216 11.8843Z" fill="#009302" fill-opacity="0.7"/>
</svg>
