<svg width="24" height="24" viewBox="0 0 24 24" fill="none" xmlns="http://www.w3.org/2000/svg">
<path d="M19 12C19 10.4977 18.6333 9.1267 17.9 7.88688C17.1667 6.64706 16.1833 5.71946 14.95 5.10407C14.7 4.97738 14.5167 4.78281 14.4 4.52036C14.2833 4.25792 14.2667 3.99095 14.35 3.71946C14.45 3.42986 14.6292 3.22172 14.8875 3.09502C15.1458 2.96833 15.4083 2.96833 15.675 3.09502C17.2917 3.8733 18.5833 5.06335 19.55 6.66516C20.5167 8.26697 21 10.0452 21 12C21 13.9548 20.5167 15.733 19.55 17.3348C18.5833 18.9367 17.2917 20.1267 15.675 20.905C15.4083 21.0317 15.1458 21.0317 14.8875 20.905C14.6292 20.7783 14.45 20.5701 14.35 20.2805C14.2667 20.009 14.2833 19.7421 14.4 19.4796C14.5167 19.2172 14.7 19.0226 14.95 18.8959C16.1833 18.2805 17.1667 17.3529 17.9 16.1131C18.6333 14.8733 19 13.5023 19 12ZM7 15.2851H4C3.71667 15.2851 3.47917 15.181 3.2875 14.9729C3.09583 14.7647 3 14.5068 3 14.1991V9.8552C3 9.54751 3.09583 9.28959 3.2875 9.08145C3.47917 8.8733 3.71667 8.76923 4 8.76923H7L10.3 5.18552C10.6167 4.84163 10.9792 4.76471 11.3875 4.95475C11.7958 5.1448 12 5.48416 12 5.97285V18.0814C12 18.5701 11.7958 18.9095 11.3875 19.0995C10.9792 19.2896 10.6167 19.2127 10.3 18.8688L7 15.2851ZM16.5 12.0271C16.5 12.7873 16.3417 13.5068 16.025 14.1855C15.7083 14.8643 15.2917 15.4208 14.775 15.8552C14.6083 15.9638 14.4375 15.9683 14.2625 15.8688C14.0875 15.7692 14 15.6109 14 15.3937V8.60633C14 8.38914 14.0875 8.23077 14.2625 8.13122C14.4375 8.03167 14.6083 8.0362 14.775 8.1448C15.2917 8.59728 15.7083 9.16742 16.025 9.8552C16.3417 10.543 16.5 11.267 16.5 12.0271Z" fill="#009302"/>
</svg>
