<svg width="24" height="24" viewBox="0 0 24 24" fill="none" xmlns="http://www.w3.org/2000/svg">
<path d="M18 13.4L16.1 15.3C15.9167 15.4833 15.6833 15.575 15.4 15.575C15.1167 15.575 14.8833 15.4833 14.7 15.3C14.5167 15.1166 14.425 14.8833 14.425 14.6C14.425 14.3166 14.5167 14.0833 14.7 13.9L16.6 12L14.7 10.1C14.5167 9.91664 14.425 9.68331 14.425 9.39998C14.425 9.11664 14.5167 8.88331 14.7 8.69998C14.8833 8.51664 15.1167 8.42498 15.4 8.42498C15.6833 8.42498 15.9167 8.51664 16.1 8.69998L18 10.6L19.9 8.69998C20.0833 8.51664 20.3167 8.42498 20.6 8.42498C20.8833 8.42498 21.1167 8.51664 21.3 8.69998C21.4833 8.88331 21.575 9.11664 21.575 9.39998C21.575 9.68331 21.4833 9.91664 21.3 10.1L19.4 12L21.3 13.9C21.4833 14.0833 21.575 14.3166 21.575 14.6C21.575 14.8833 21.4833 15.1166 21.3 15.3C21.1167 15.4833 20.8833 15.575 20.6 15.575C20.3167 15.575 20.0833 15.4833 19.9 15.3L18 13.4ZM7 15H4C3.71667 15 3.47917 14.9041 3.2875 14.7125C3.09583 14.5208 3 14.2833 3 14V9.99998C3 9.71664 3.09583 9.47914 3.2875 9.28748C3.47917 9.09581 3.71667 8.99998 4 8.99998H7L10.3 5.69998C10.6167 5.38331 10.9792 5.31248 11.3875 5.48748C11.7958 5.66248 12 5.97498 12 6.42498V17.575C12 18.025 11.7958 18.3375 11.3875 18.5125C10.9792 18.6875 10.6167 18.6166 10.3 18.3L7 15Z" fill="#009302"/>
</svg>
