<svg width="48" height="48" viewBox="0 0 48 48" fill="none" xmlns="http://www.w3.org/2000/svg">
<path d="M17.6656 10.6414C18.0562 10.2509 18.0562 9.61774 17.6656 9.22722L16.9585 8.52011C16.568 8.12959 15.9348 8.12959 15.5443 8.52011L9.53391 14.5305C8.94813 15.1163 8.94813 16.0661 9.53391 16.6518L9.84431 16.9622C9.89756 17.025 9.95569 17.0831 10.0179 17.1359L15.5443 22.6622C15.9348 23.0528 16.568 23.0528 16.9585 22.6622L17.6656 21.9551C18.0562 21.5646 18.0562 20.9315 17.6656 20.5409L14.1083 16.9836C16.4976 16.8148 18.9068 17.2396 21.1147 18.24C24.1703 19.6245 26.6514 22.0257 28.1351 25.0343C29.6188 28.043 30.0134 31.4731 29.2517 34.7401C28.8805 36.3319 28.246 37.837 27.3851 39.1983L27.1178 39.6208C26.8226 40.0876 26.9617 40.7053 27.4284 41.0005L28.2736 41.535C28.7403 41.8303 29.358 41.6912 29.6533 41.2244L29.9205 40.8019C30.9596 39.159 31.7253 37.3425 32.1733 35.4214C33.0927 31.4784 32.6164 27.3387 30.8257 23.7075C29.035 20.0763 26.0406 17.1783 22.3528 15.5074C19.8251 14.3621 17.0788 13.8419 14.3418 13.9653L17.6656 10.6414Z" fill="#009302" fill-opacity="0.7"/>
</svg>
