<svg width="70" height="70" viewBox="0 0 70 70" fill="none" xmlns="http://www.w3.org/2000/svg">
<g filter="url(#filter0_dddddd_356_739)">
<path d="M33.3839 39.322V39.322C33.3839 39.3784 33.4297 39.4242 33.4862 39.4242H35.3271C35.3836 39.4242 35.4294 39.3784 35.4294 39.322V39.322C35.4407 38.6174 35.5146 38.0293 35.651 37.5578C35.7873 37.0862 36.0061 36.6799 36.3072 36.339C36.6084 35.9924 37.0089 35.6629 37.5089 35.3504C38.0089 35.0435 38.4351 34.6913 38.7873 34.2935C39.1453 33.8958 39.418 33.4441 39.6055 32.9384C39.7987 32.4328 39.8953 31.8674 39.8953 31.2424C39.8953 30.356 39.6907 29.5663 39.2817 28.8731C38.8782 28.1799 38.3044 27.6345 37.5601 27.2367C36.8214 26.839 35.9521 26.6401 34.9521 26.6401C34.0317 26.6401 33.1936 26.822 32.4379 27.1856C31.6879 27.5492 31.0828 28.0748 30.6226 28.7623C30.3401 29.1895 30.1367 29.6704 30.0122 30.205C29.8828 30.7609 30.35 31.2424 30.9207 31.2424H31.0858C31.6118 31.2424 32.026 30.8264 32.1827 30.3243C32.2662 30.0564 32.3797 29.8198 32.5231 29.6146C32.8129 29.1998 33.1737 28.8958 33.6055 28.7026C34.0373 28.5095 34.4862 28.4129 34.9521 28.4129C35.4862 28.4129 35.972 28.5237 36.4095 28.7453C36.847 28.9668 37.1964 29.2822 37.4578 29.6913C37.7192 30.1004 37.8498 30.5833 37.8498 31.1401C37.8498 31.589 37.7703 31.9981 37.6112 32.3674C37.4578 32.7367 37.2476 33.0634 36.9805 33.3475C36.7135 33.6259 36.4123 33.8674 36.0771 34.072C35.5203 34.4072 35.043 34.7737 34.6453 35.1714C34.2476 35.5691 33.9407 36.089 33.7248 36.731C33.5089 37.3731 33.3953 38.2367 33.3839 39.322Z" fill="#009302" fill-opacity="0.7"/>
<path d="M33.3924 44.018C33.6936 44.3191 34.0544 44.4697 34.4748 44.4697C34.7589 44.4697 35.0146 44.4015 35.2419 44.2651C35.4748 44.1231 35.6595 43.9356 35.7959 43.7026C35.9379 43.4697 36.0089 43.214 36.0089 42.9356C36.0089 42.5151 35.8584 42.1543 35.5572 41.8532C35.2561 41.5521 34.8953 41.4015 34.4748 41.4015C34.0544 41.4015 33.6936 41.5521 33.3924 41.8532C33.0913 42.1543 32.9407 42.5151 32.9407 42.9356C32.9407 43.356 33.0913 43.7168 33.3924 44.018Z" fill="#009302" fill-opacity="0.7"/>
<path fill-rule="evenodd" clip-rule="evenodd" d="M19 35C19 26.1634 26.1634 19 35 19C43.8366 19 51 26.1634 51 35C51 43.8366 43.8366 51 35 51C26.1634 51 19 43.8366 19 35ZM35 49C27.268 49 21 42.732 21 35C21 27.268 27.268 21 35 21C42.732 21 49 27.268 49 35C49 42.732 42.732 49 35 49Z" fill="#009302" fill-opacity="0.7"/>
<path d="M33.3839 39.322V39.322C33.3839 39.3784 33.4297 39.4242 33.4862 39.4242H35.3271C35.3836 39.4242 35.4294 39.3784 35.4294 39.322V39.322C35.4407 38.6174 35.5146 38.0293 35.651 37.5578C35.7873 37.0862 36.0061 36.6799 36.3072 36.339C36.6084 35.9924 37.0089 35.6629 37.5089 35.3504C38.0089 35.0435 38.4351 34.6913 38.7873 34.2935C39.1453 33.8958 39.418 33.4441 39.6055 32.9384C39.7987 32.4328 39.8953 31.8674 39.8953 31.2424C39.8953 30.356 39.6907 29.5663 39.2817 28.8731C38.8782 28.1799 38.3044 27.6345 37.5601 27.2367C36.8214 26.839 35.9521 26.6401 34.9521 26.6401C34.0317 26.6401 33.1936 26.822 32.4379 27.1856C31.6879 27.5492 31.0828 28.0748 30.6226 28.7623C30.3401 29.1895 30.1367 29.6704 30.0122 30.205C29.8828 30.7609 30.35 31.2424 30.9207 31.2424H31.0858C31.6118 31.2424 32.026 30.8264 32.1827 30.3243C32.2662 30.0564 32.3797 29.8198 32.5231 29.6146C32.8129 29.1998 33.1737 28.8958 33.6055 28.7026C34.0373 28.5095 34.4862 28.4129 34.9521 28.4129C35.4862 28.4129 35.972 28.5237 36.4095 28.7453C36.847 28.9668 37.1964 29.2822 37.4578 29.6913C37.7192 30.1004 37.8498 30.5833 37.8498 31.1401C37.8498 31.589 37.7703 31.9981 37.6112 32.3674C37.4578 32.7367 37.2476 33.0634 36.9805 33.3475C36.7135 33.6259 36.4123 33.8674 36.0771 34.072C35.5203 34.4072 35.043 34.7737 34.6453 35.1714C34.2476 35.5691 33.9407 36.089 33.7248 36.731C33.5089 37.3731 33.3953 38.2367 33.3839 39.322Z" stroke="#04CD07" stroke-linecap="square" stroke-linejoin="round"/>
<path d="M33.3924 44.018C33.6936 44.3191 34.0544 44.4697 34.4748 44.4697C34.7589 44.4697 35.0146 44.4015 35.2419 44.2651C35.4748 44.1231 35.6595 43.9356 35.7959 43.7026C35.9379 43.4697 36.0089 43.214 36.0089 42.9356C36.0089 42.5151 35.8584 42.1543 35.5572 41.8532C35.2561 41.5521 34.8953 41.4015 34.4748 41.4015C34.0544 41.4015 33.6936 41.5521 33.3924 41.8532C33.0913 42.1543 32.9407 42.5151 32.9407 42.9356C32.9407 43.356 33.0913 43.7168 33.3924 44.018Z" stroke="#04CD07" stroke-linecap="square" stroke-linejoin="round"/>
<path fill-rule="evenodd" clip-rule="evenodd" d="M19 35C19 26.1634 26.1634 19 35 19C43.8366 19 51 26.1634 51 35C51 43.8366 43.8366 51 35 51C26.1634 51 19 43.8366 19 35ZM35 49C27.268 49 21 42.732 21 35C21 27.268 27.268 21 35 21C42.732 21 49 27.268 49 35C49 42.732 42.732 49 35 49Z" stroke="#04CD07" stroke-linecap="square" stroke-linejoin="round"/>
</g>
<defs>
<filter id="filter0_dddddd_356_739" x="0.0836296" y="0.0836296" width="69.8327" height="69.8327" filterUnits="userSpaceOnUse" color-interpolation-filters="sRGB">
<feFlood flood-opacity="0" result="BackgroundImageFix"/>
<feColorMatrix in="SourceAlpha" type="matrix" values="0 0 0 0 0 0 0 0 0 0 0 0 0 0 0 0 0 0 127 0" result="hardAlpha"/>
<feOffset/>
<feGaussianBlur stdDeviation="0.219243"/>
<feColorMatrix type="matrix" values="0 0 0 0 0.105882 0 0 0 0 0.560784 0 0 0 0 0.0980392 0 0 0 1 0"/>
<feBlend mode="normal" in2="BackgroundImageFix" result="effect1_dropShadow_356_739"/>
<feColorMatrix in="SourceAlpha" type="matrix" values="0 0 0 0 0 0 0 0 0 0 0 0 0 0 0 0 0 0 127 0" result="hardAlpha"/>
<feOffset/>
<feGaussianBlur stdDeviation="0.438485"/>
<feColorMatrix type="matrix" values="0 0 0 0 0.105882 0 0 0 0 0.560784 0 0 0 0 0.0980392 0 0 0 1 0"/>
<feBlend mode="normal" in2="effect1_dropShadow_356_739" result="effect2_dropShadow_356_739"/>
<feColorMatrix in="SourceAlpha" type="matrix" values="0 0 0 0 0 0 0 0 0 0 0 0 0 0 0 0 0 0 127 0" result="hardAlpha"/>
<feOffset/>
<feGaussianBlur stdDeviation="1.5347"/>
<feColorMatrix type="matrix" values="0 0 0 0 0.105882 0 0 0 0 0.560784 0 0 0 0 0.0980392 0 0 0 1 0"/>
<feBlend mode="normal" in2="effect2_dropShadow_356_739" result="effect3_dropShadow_356_739"/>
<feColorMatrix in="SourceAlpha" type="matrix" values="0 0 0 0 0 0 0 0 0 0 0 0 0 0 0 0 0 0 127 0" result="hardAlpha"/>
<feOffset/>
<feGaussianBlur stdDeviation="3.0694"/>
<feColorMatrix type="matrix" values="0 0 0 0 0.105882 0 0 0 0 0.560784 0 0 0 0 0.0980392 0 0 0 1 0"/>
<feBlend mode="normal" in2="effect3_dropShadow_356_739" result="effect4_dropShadow_356_739"/>
<feColorMatrix in="SourceAlpha" type="matrix" values="0 0 0 0 0 0 0 0 0 0 0 0 0 0 0 0 0 0 127 0" result="hardAlpha"/>
<feOffset/>
<feGaussianBlur stdDeviation="5.26182"/>
<feColorMatrix type="matrix" values="0 0 0 0 0.105882 0 0 0 0 0.560784 0 0 0 0 0.0980392 0 0 0 1 0"/>
<feBlend mode="normal" in2="effect4_dropShadow_356_739" result="effect5_dropShadow_356_739"/>
<feColorMatrix in="SourceAlpha" type="matrix" values="0 0 0 0 0 0 0 0 0 0 0 0 0 0 0 0 0 0 127 0" result="hardAlpha"/>
<feOffset/>
<feGaussianBlur stdDeviation="9.20819"/>
<feColorMatrix type="matrix" values="0 0 0 0 0.105882 0 0 0 0 0.560784 0 0 0 0 0.0980392 0 0 0 1 0"/>
<feBlend mode="normal" in2="effect5_dropShadow_356_739" result="effect6_dropShadow_356_739"/>
<feBlend mode="normal" in="SourceGraphic" in2="effect6_dropShadow_356_739" result="shape"/>
</filter>
</defs>
</svg>
