<svg width="40" height="40" viewBox="0 0 40 40" fill="none" xmlns="http://www.w3.org/2000/svg">
<path d="M18.397 23.9191C18.3853 24.1971 18.611 24.4242 18.8892 24.4242H19.9374C20.2104 24.4242 20.4316 24.2051 20.4477 23.9326C20.4789 23.4073 20.5466 22.9185 20.651 22.5578C20.7873 22.0862 21.0061 21.6799 21.3072 21.339C21.6084 20.9924 22.0089 20.6629 22.5089 20.3504C23.0089 20.0435 23.4351 19.6913 23.7873 19.2935C24.1453 18.8958 24.418 18.4441 24.6055 17.9384C24.7987 17.4328 24.8953 16.8674 24.8953 16.2424C24.8953 15.356 24.6907 14.5663 24.2816 13.8731C23.8782 13.1799 23.3044 12.6345 22.5601 12.2367C21.8214 11.839 20.9521 11.6401 19.9521 11.6401C19.0316 11.6401 18.1936 11.822 17.4379 12.1856C16.6879 12.5492 16.0828 13.0748 15.6226 13.7623C15.3401 14.1895 15.1367 14.6704 15.0122 15.205C14.8828 15.7609 15.35 16.2424 15.9207 16.2424H16.0858C16.6118 16.2424 17.026 15.8264 17.1827 15.3243C17.2662 15.0564 17.3797 14.8198 17.5231 14.6146C17.8129 14.1998 18.1737 13.8958 18.6055 13.7026C19.0373 13.5095 19.4862 13.4129 19.9521 13.4129C20.4862 13.4129 20.972 13.5237 21.4095 13.7453C21.847 13.9668 22.1964 14.2822 22.4578 14.6913C22.7192 15.1004 22.8498 15.5833 22.8498 16.1401C22.8498 16.589 22.7703 16.9981 22.6112 17.3674C22.4578 17.7367 22.2476 18.0634 21.9805 18.3475C21.7135 18.6259 21.4123 18.8674 21.0771 19.072C20.5203 19.4072 20.043 19.7737 19.6453 20.1714C19.2476 20.5691 18.9407 21.089 18.7248 21.731C18.5431 22.2716 18.4338 23.0416 18.397 23.9191Z" fill="#009302" fill-opacity="0.7"/>
<path d="M18.3924 29.018C18.6936 29.3191 19.0544 29.4697 19.4748 29.4697C19.7589 29.4697 20.0146 29.4015 20.2419 29.2651C20.4748 29.1231 20.6595 28.9356 20.7959 28.7026C20.9379 28.4697 21.0089 28.214 21.0089 27.9356C21.0089 27.5151 20.8584 27.1543 20.5572 26.8532C20.2561 26.5521 19.8953 26.4015 19.4748 26.4015C19.0544 26.4015 18.6936 26.5521 18.3924 26.8532C18.0913 27.1543 17.9407 27.5151 17.9407 27.9356C17.9407 28.356 18.0913 28.7168 18.3924 29.018Z" fill="#009302" fill-opacity="0.7"/>
<path fill-rule="evenodd" clip-rule="evenodd" d="M4 20C4 11.1634 11.1634 4 20 4C28.8366 4 36 11.1634 36 20C36 28.8366 28.8366 36 20 36C11.1634 36 4 28.8366 4 20ZM20 34C12.268 34 6 27.732 6 20C6 12.268 12.268 6 20 6C27.732 6 34 12.268 34 20C34 27.732 27.732 34 20 34Z" fill="#009302" fill-opacity="0.7"/>
</svg>
