<svg width="40" height="40" viewBox="0 0 40 40" fill="none" xmlns="http://www.w3.org/2000/svg">
<path fill-rule="evenodd" clip-rule="evenodd" d="M26 19.5C26 22.5376 23.5376 25 20.5 25C17.4624 25 15 22.5376 15 19.5C15 16.4624 17.4624 14 20.5 14C23.5376 14 26 16.4624 26 19.5ZM24 19.5C24 21.433 22.433 23 20.5 23C18.567 23 17 21.433 17 19.5C17 17.567 18.567 16 20.5 16C22.433 16 24 17.567 24 19.5Z" fill="#009302" fill-opacity="0.7"/>
<path fill-rule="evenodd" clip-rule="evenodd" d="M24 5.5C24 4.67157 23.3284 4 22.5 4H18.5C17.6716 4 17 4.67157 17 5.5V7.72183C17 9.05819 15.3843 9.72744 14.4393 8.78249L13.0104 7.35356C12.4246 6.76777 11.4749 6.76777 10.8891 7.35356L8.06066 10.182C7.47487 10.7678 7.47487 11.7175 8.06066 12.3033L9.1967 13.4393C10.1416 14.3843 9.47239 16 8.13603 16H5.5C4.67157 16 4 16.6716 4 17.5V21.5C4 22.3284 4.67157 23 5.5 23H8.59189C9.92824 23 10.5975 24.6157 9.65255 25.5607L7.35356 27.8596C6.76777 28.4454 6.76777 29.3952 7.35356 29.981L10.182 32.8094C10.7678 33.3952 11.7175 33.3952 12.3033 32.8094L14.4393 30.6734C15.3843 29.7284 17 30.3977 17 31.734V34.5C17 35.3284 17.6716 36 18.5 36H22.5C23.3284 36 24 35.3284 24 34.5V31.864C24 30.5276 25.6157 29.8584 26.5607 30.8033L28.5668 32.8094C29.1525 33.3952 30.1023 33.3952 30.6881 32.8094L33.5165 29.981C34.1023 29.3952 34.1023 28.4454 33.5165 27.8597L31.2175 25.5607C30.2726 24.6157 30.9418 23 32.2782 23H34.5C35.3284 23 36 22.3284 36 21.5V17.5C36 16.6716 35.3284 16 34.5 16H32.734C31.3977 16 30.7284 14.3843 31.6734 13.4393L32.8094 12.3033C33.3952 11.7175 33.3952 10.7678 32.8094 10.182L29.981 7.35355C29.3952 6.76777 28.4454 6.76777 27.8597 7.35355L26.5607 8.65255C25.6157 9.59749 24 8.92825 24 7.59189V5.5ZM19 7.72183V6H22V7.59189C22 10.7101 25.77 12.2716 27.9749 10.0668L28.9203 9.12132L31.0416 11.2426L30.2591 12.0251C28.0543 14.23 29.6159 18 32.734 18H34V21H32.2782C29.16 21 27.5984 24.77 29.8033 26.9749L31.7487 28.9203L29.6274 31.0416L27.9749 29.3891C25.77 27.1842 22 28.7458 22 31.864V34H19V31.734C19 28.6159 15.23 27.0543 13.0251 29.2591L11.2426 31.0416L9.12133 28.9203L11.0668 26.9749C13.2716 24.77 11.71 21 8.59189 21H6V18H8.13603C11.2542 18 12.8158 14.23 10.6109 12.0251L9.82843 11.2426L11.9497 9.12133L13.0251 10.1967C15.23 12.4016 19 10.84 19 7.72183Z" fill="#009302" fill-opacity="0.7"/>
</svg>
