<svg width="70" height="70" viewBox="0 0 70 70" fill="none" xmlns="http://www.w3.org/2000/svg">
<g filter="url(#filter0_dddddd_356_738)">
<path fill-rule="evenodd" clip-rule="evenodd" d="M41 34.5C41 37.5376 38.5376 40 35.5 40C32.4624 40 30 37.5376 30 34.5C30 31.4624 32.4624 29 35.5 29C38.5376 29 41 31.4624 41 34.5ZM39 34.5C39 36.433 37.433 38 35.5 38C33.567 38 32 36.433 32 34.5C32 32.567 33.567 31 35.5 31C37.433 31 39 32.567 39 34.5Z" fill="#009302" fill-opacity="0.7"/>
<path fill-rule="evenodd" clip-rule="evenodd" d="M39 20.5C39 19.6716 38.3284 19 37.5 19H33.5C32.6716 19 32 19.6716 32 20.5V22.7218C32 24.0582 30.3843 24.7274 29.4393 23.7825L28.0104 22.3536C27.4246 21.7678 26.4749 21.7678 25.8891 22.3536L23.0607 25.182C22.4749 25.7678 22.4749 26.7175 23.0607 27.3033L24.1967 28.4393C25.1416 29.3843 24.4724 31 23.136 31H20.5C19.6716 31 19 31.6716 19 32.5V36.5C19 37.3284 19.6716 38 20.5 38H23.5919C24.9282 38 25.5975 39.6157 24.6525 40.5607L22.3536 42.8596C21.7678 43.4454 21.7678 44.3952 22.3536 44.981L25.182 47.8094C25.7678 48.3952 26.7175 48.3952 27.3033 47.8094L29.4393 45.6734C30.3843 44.7284 32 45.3977 32 46.734V49.5C32 50.3284 32.6716 51 33.5 51H37.5C38.3284 51 39 50.3284 39 49.5V46.864C39 45.5276 40.6157 44.8584 41.5607 45.8033L43.5668 47.8094C44.1525 48.3952 45.1023 48.3952 45.6881 47.8094L48.5165 44.981C49.1023 44.3952 49.1023 43.4454 48.5165 42.8597L46.2175 40.5607C45.2726 39.6157 45.9418 38 47.2782 38H49.5C50.3284 38 51 37.3284 51 36.5V32.5C51 31.6716 50.3284 31 49.5 31H47.734C46.3977 31 45.7284 29.3843 46.6734 28.4393L47.8094 27.3033C48.3952 26.7175 48.3952 25.7678 47.8094 25.182L44.981 22.3536C44.3952 21.7678 43.4454 21.7678 42.8597 22.3536L41.5607 23.6525C40.6157 24.5975 39 23.9282 39 22.5919V20.5ZM34 22.7218V22C34 21.4477 34.4477 21 35 21H36C36.5523 21 37 21.4477 37 22V22.5919C37 25.7101 40.77 27.2716 42.9749 25.0668L43.2132 24.8284C43.6037 24.4379 44.2369 24.4379 44.6274 24.8284L45.3345 25.5355C45.7251 25.9261 45.7251 26.5592 45.3345 26.9497L45.2591 27.0251C43.0543 29.23 44.6159 33 47.734 33H48C48.5523 33 49 33.4477 49 34V35C49 35.5523 48.5523 36 48 36H47.2782C44.16 36 42.5984 39.77 44.8033 41.9749L46.0416 43.2132C46.4322 43.6037 46.4322 44.2369 46.0416 44.6274L45.3345 45.3345C44.944 45.7251 44.3108 45.7251 43.9203 45.3345L42.9749 44.3891C40.77 42.1842 37 43.7458 37 46.864V48C37 48.5523 36.5523 49 36 49H35C34.4477 49 34 48.5523 34 48V46.734C34 43.6159 30.23 42.0543 28.0251 44.2591L26.9498 45.3345C26.5592 45.725 25.9261 45.725 25.5355 45.3345L24.8284 44.6274C24.4379 44.2369 24.4379 43.6037 24.8284 43.2132L26.0668 41.9749C28.2716 39.77 26.71 36 23.5919 36H22C21.4477 36 21 35.5523 21 35V34C21 33.4477 21.4477 33 22 33H23.136C26.2542 33 27.8158 29.23 25.6109 27.0251L25.5355 26.9498C25.145 26.5592 25.145 25.9261 25.5355 25.5355L26.2426 24.8284C26.6332 24.4379 27.2663 24.4379 27.6569 24.8284L28.0251 25.1967C30.23 27.4016 34 25.84 34 22.7218Z" fill="#009302" fill-opacity="0.7"/>
<path fill-rule="evenodd" clip-rule="evenodd" d="M41 34.5C41 37.5376 38.5376 40 35.5 40C32.4624 40 30 37.5376 30 34.5C30 31.4624 32.4624 29 35.5 29C38.5376 29 41 31.4624 41 34.5ZM39 34.5C39 36.433 37.433 38 35.5 38C33.567 38 32 36.433 32 34.5C32 32.567 33.567 31 35.5 31C37.433 31 39 32.567 39 34.5Z" stroke="#04CD07" stroke-linecap="square" stroke-linejoin="round"/>
<path fill-rule="evenodd" clip-rule="evenodd" d="M39 20.5C39 19.6716 38.3284 19 37.5 19H33.5C32.6716 19 32 19.6716 32 20.5V22.7218C32 24.0582 30.3843 24.7274 29.4393 23.7825L28.0104 22.3536C27.4246 21.7678 26.4749 21.7678 25.8891 22.3536L23.0607 25.182C22.4749 25.7678 22.4749 26.7175 23.0607 27.3033L24.1967 28.4393C25.1416 29.3843 24.4724 31 23.136 31H20.5C19.6716 31 19 31.6716 19 32.5V36.5C19 37.3284 19.6716 38 20.5 38H23.5919C24.9282 38 25.5975 39.6157 24.6525 40.5607L22.3536 42.8596C21.7678 43.4454 21.7678 44.3952 22.3536 44.981L25.182 47.8094C25.7678 48.3952 26.7175 48.3952 27.3033 47.8094L29.4393 45.6734C30.3843 44.7284 32 45.3977 32 46.734V49.5C32 50.3284 32.6716 51 33.5 51H37.5C38.3284 51 39 50.3284 39 49.5V46.864C39 45.5276 40.6157 44.8584 41.5607 45.8033L43.5668 47.8094C44.1525 48.3952 45.1023 48.3952 45.6881 47.8094L48.5165 44.981C49.1023 44.3952 49.1023 43.4454 48.5165 42.8597L46.2175 40.5607C45.2726 39.6157 45.9418 38 47.2782 38H49.5C50.3284 38 51 37.3284 51 36.5V32.5C51 31.6716 50.3284 31 49.5 31H47.734C46.3977 31 45.7284 29.3843 46.6734 28.4393L47.8094 27.3033C48.3952 26.7175 48.3952 25.7678 47.8094 25.182L44.981 22.3536C44.3952 21.7678 43.4454 21.7678 42.8597 22.3536L41.5607 23.6525C40.6157 24.5975 39 23.9282 39 22.5919V20.5ZM34 22.7218V22C34 21.4477 34.4477 21 35 21H36C36.5523 21 37 21.4477 37 22V22.5919C37 25.7101 40.77 27.2716 42.9749 25.0668L43.2132 24.8284C43.6037 24.4379 44.2369 24.4379 44.6274 24.8284L45.3345 25.5355C45.7251 25.9261 45.7251 26.5592 45.3345 26.9497L45.2591 27.0251C43.0543 29.23 44.6159 33 47.734 33H48C48.5523 33 49 33.4477 49 34V35C49 35.5523 48.5523 36 48 36H47.2782C44.16 36 42.5984 39.77 44.8033 41.9749L46.0416 43.2132C46.4322 43.6037 46.4322 44.2369 46.0416 44.6274L45.3345 45.3345C44.944 45.7251 44.3108 45.7251 43.9203 45.3345L42.9749 44.3891C40.77 42.1842 37 43.7458 37 46.864V48C37 48.5523 36.5523 49 36 49H35C34.4477 49 34 48.5523 34 48V46.734C34 43.6159 30.23 42.0543 28.0251 44.2591L26.9498 45.3345C26.5592 45.725 25.9261 45.725 25.5355 45.3345L24.8284 44.6274C24.4379 44.2369 24.4379 43.6037 24.8284 43.2132L26.0668 41.9749C28.2716 39.77 26.71 36 23.5919 36H22C21.4477 36 21 35.5523 21 35V34C21 33.4477 21.4477 33 22 33H23.136C26.2542 33 27.8158 29.23 25.6109 27.0251L25.5355 26.9498C25.145 26.5592 25.145 25.9261 25.5355 25.5355L26.2426 24.8284C26.6332 24.4379 27.2663 24.4379 27.6569 24.8284L28.0251 25.1967C30.23 27.4016 34 25.84 34 22.7218Z" stroke="#04CD07" stroke-linecap="square" stroke-linejoin="round"/>
</g>
<defs>
<filter id="filter0_dddddd_356_738" x="0.0836296" y="0.0836296" width="69.8327" height="69.8327" filterUnits="userSpaceOnUse" color-interpolation-filters="sRGB">
<feFlood flood-opacity="0" result="BackgroundImageFix"/>
<feColorMatrix in="SourceAlpha" type="matrix" values="0 0 0 0 0 0 0 0 0 0 0 0 0 0 0 0 0 0 127 0" result="hardAlpha"/>
<feOffset/>
<feGaussianBlur stdDeviation="0.219243"/>
<feColorMatrix type="matrix" values="0 0 0 0 0.105882 0 0 0 0 0.560784 0 0 0 0 0.0980392 0 0 0 1 0"/>
<feBlend mode="normal" in2="BackgroundImageFix" result="effect1_dropShadow_356_738"/>
<feColorMatrix in="SourceAlpha" type="matrix" values="0 0 0 0 0 0 0 0 0 0 0 0 0 0 0 0 0 0 127 0" result="hardAlpha"/>
<feOffset/>
<feGaussianBlur stdDeviation="0.438485"/>
<feColorMatrix type="matrix" values="0 0 0 0 0.105882 0 0 0 0 0.560784 0 0 0 0 0.0980392 0 0 0 1 0"/>
<feBlend mode="normal" in2="effect1_dropShadow_356_738" result="effect2_dropShadow_356_738"/>
<feColorMatrix in="SourceAlpha" type="matrix" values="0 0 0 0 0 0 0 0 0 0 0 0 0 0 0 0 0 0 127 0" result="hardAlpha"/>
<feOffset/>
<feGaussianBlur stdDeviation="1.5347"/>
<feColorMatrix type="matrix" values="0 0 0 0 0.105882 0 0 0 0 0.560784 0 0 0 0 0.0980392 0 0 0 1 0"/>
<feBlend mode="normal" in2="effect2_dropShadow_356_738" result="effect3_dropShadow_356_738"/>
<feColorMatrix in="SourceAlpha" type="matrix" values="0 0 0 0 0 0 0 0 0 0 0 0 0 0 0 0 0 0 127 0" result="hardAlpha"/>
<feOffset/>
<feGaussianBlur stdDeviation="3.0694"/>
<feColorMatrix type="matrix" values="0 0 0 0 0.105882 0 0 0 0 0.560784 0 0 0 0 0.0980392 0 0 0 1 0"/>
<feBlend mode="normal" in2="effect3_dropShadow_356_738" result="effect4_dropShadow_356_738"/>
<feColorMatrix in="SourceAlpha" type="matrix" values="0 0 0 0 0 0 0 0 0 0 0 0 0 0 0 0 0 0 127 0" result="hardAlpha"/>
<feOffset/>
<feGaussianBlur stdDeviation="5.26182"/>
<feColorMatrix type="matrix" values="0 0 0 0 0.105882 0 0 0 0 0.560784 0 0 0 0 0.0980392 0 0 0 1 0"/>
<feBlend mode="normal" in2="effect4_dropShadow_356_738" result="effect5_dropShadow_356_738"/>
<feColorMatrix in="SourceAlpha" type="matrix" values="0 0 0 0 0 0 0 0 0 0 0 0 0 0 0 0 0 0 127 0" result="hardAlpha"/>
<feOffset/>
<feGaussianBlur stdDeviation="9.20819"/>
<feColorMatrix type="matrix" values="0 0 0 0 0.105882 0 0 0 0 0.560784 0 0 0 0 0.0980392 0 0 0 1 0"/>
<feBlend mode="normal" in2="effect5_dropShadow_356_738" result="effect6_dropShadow_356_738"/>
<feBlend mode="normal" in="SourceGraphic" in2="effect6_dropShadow_356_738" result="shape"/>
</filter>
</defs>
</svg>
