<svg width="40" height="40" viewBox="0 0 40 40" fill="none" xmlns="http://www.w3.org/2000/svg">
<path d="M14.5 7.5C15.0523 7.5 15.5 7.05228 15.5 6.5V5.5C15.5 4.94772 15.0523 4.5 14.5 4.5H6C5.17157 4.5 4.5 5.17157 4.5 6V34C4.5 34.8284 5.17157 35.5 6 35.5H10.75H14.5C15.0523 35.5 15.5 35.0523 15.5 34.5V33.5C15.5 32.9477 15.0523 32.5 14.5 32.5H7.5V7.5H14.5Z" fill="#009302" fill-opacity="0.7"/>
<path d="M30.3787 18.5H16.5C15.9477 18.5 15.5 18.9478 15.5 19.5V20.5C15.5 21.0523 15.9477 21.5 16.5 21.5H30.3786L26.5858 25.2929C26.1953 25.6834 26.1953 26.3166 26.5858 26.7071L27.2929 27.4142C27.6834 27.8047 28.3166 27.8047 28.7071 27.4142L35.0607 21.0606C35.6464 20.4749 35.6464 19.5251 35.0607 18.9393L28.7071 12.5858C28.3166 12.1952 27.6834 12.1952 27.2929 12.5858L26.5858 13.2929C26.1953 13.6834 26.1953 14.3166 26.5858 14.7071L30.3787 18.5Z" fill="#009302" fill-opacity="0.7"/>
</svg>
