<svg width="69" height="69" viewBox="0 0 69 69" fill="none" xmlns="http://www.w3.org/2000/svg">
<g filter="url(#filter0_dddddd_383_1349)">
<path fill-rule="evenodd" clip-rule="evenodd" d="M30 21C30 21.5523 29.5523 22 29 22H23C22.4477 22 22 22.4477 22 23V46C22 46.5523 22.4477 47 23 47H29C29.5523 47 30 47.4477 30 48V49C30 49.5523 29.5523 50 29 50H20.5C19.6716 50 19 49.3284 19 48.5L19 20.5C19 19.6716 19.6716 19 20.5 19H29C29.5523 19 30 19.4477 30 20V21Z" fill="#009302" fill-opacity="0.7"/>
<path d="M42.4645 33.0001C43.3554 33.0001 43.8016 31.9229 43.1716 31.293L41.0858 29.2071C40.6953 28.8166 40.6953 28.1834 41.0858 27.7929L41.7929 27.0858C42.1834 26.6953 42.8166 26.6953 43.2071 27.0858L49.5607 33.4393C50.1464 34.0251 50.1464 34.9749 49.5607 35.5607L43.2071 41.9142C42.8166 42.3047 42.1834 42.3047 41.7929 41.9142L41.0858 41.2071C40.6953 40.8166 40.6953 40.1834 41.0858 39.7929L43.1715 37.7072C43.8015 37.0772 43.3553 36.0001 42.4644 36.0001H31C30.4477 36.0001 30 35.5523 30 35.0001V34.0001C30 33.4478 30.4477 33.0001 31 33.0001H42.4645Z" fill="#009302" fill-opacity="0.7"/>
<path fill-rule="evenodd" clip-rule="evenodd" d="M30 21C30 21.5523 29.5523 22 29 22H23C22.4477 22 22 22.4477 22 23V46C22 46.5523 22.4477 47 23 47H29C29.5523 47 30 47.4477 30 48V49C30 49.5523 29.5523 50 29 50H20.5C19.6716 50 19 49.3284 19 48.5L19 20.5C19 19.6716 19.6716 19 20.5 19H29C29.5523 19 30 19.4477 30 20V21Z" stroke="#04CD07" stroke-linecap="square" stroke-linejoin="round"/>
<path d="M42.4645 33.0001C43.3554 33.0001 43.8016 31.9229 43.1716 31.293L41.0858 29.2071C40.6953 28.8166 40.6953 28.1834 41.0858 27.7929L41.7929 27.0858C42.1834 26.6953 42.8166 26.6953 43.2071 27.0858L49.5607 33.4393C50.1464 34.0251 50.1464 34.9749 49.5607 35.5607L43.2071 41.9142C42.8166 42.3047 42.1834 42.3047 41.7929 41.9142L41.0858 41.2071C40.6953 40.8166 40.6953 40.1834 41.0858 39.7929L43.1715 37.7072C43.8015 37.0772 43.3553 36.0001 42.4644 36.0001H31C30.4477 36.0001 30 35.5523 30 35.0001V34.0001C30 33.4478 30.4477 33.0001 31 33.0001H42.4645Z" stroke="#04CD07" stroke-linecap="square" stroke-linejoin="round"/>
</g>
<defs>
<filter id="filter0_dddddd_383_1349" x="0.0836296" y="0.0836296" width="68.8327" height="68.8327" filterUnits="userSpaceOnUse" color-interpolation-filters="sRGB">
<feFlood flood-opacity="0" result="BackgroundImageFix"/>
<feColorMatrix in="SourceAlpha" type="matrix" values="0 0 0 0 0 0 0 0 0 0 0 0 0 0 0 0 0 0 127 0" result="hardAlpha"/>
<feOffset/>
<feGaussianBlur stdDeviation="0.219243"/>
<feColorMatrix type="matrix" values="0 0 0 0 0.105882 0 0 0 0 0.560784 0 0 0 0 0.0980392 0 0 0 1 0"/>
<feBlend mode="normal" in2="BackgroundImageFix" result="effect1_dropShadow_383_1349"/>
<feColorMatrix in="SourceAlpha" type="matrix" values="0 0 0 0 0 0 0 0 0 0 0 0 0 0 0 0 0 0 127 0" result="hardAlpha"/>
<feOffset/>
<feGaussianBlur stdDeviation="0.438485"/>
<feColorMatrix type="matrix" values="0 0 0 0 0.105882 0 0 0 0 0.560784 0 0 0 0 0.0980392 0 0 0 1 0"/>
<feBlend mode="normal" in2="effect1_dropShadow_383_1349" result="effect2_dropShadow_383_1349"/>
<feColorMatrix in="SourceAlpha" type="matrix" values="0 0 0 0 0 0 0 0 0 0 0 0 0 0 0 0 0 0 127 0" result="hardAlpha"/>
<feOffset/>
<feGaussianBlur stdDeviation="1.5347"/>
<feColorMatrix type="matrix" values="0 0 0 0 0.105882 0 0 0 0 0.560784 0 0 0 0 0.0980392 0 0 0 1 0"/>
<feBlend mode="normal" in2="effect2_dropShadow_383_1349" result="effect3_dropShadow_383_1349"/>
<feColorMatrix in="SourceAlpha" type="matrix" values="0 0 0 0 0 0 0 0 0 0 0 0 0 0 0 0 0 0 127 0" result="hardAlpha"/>
<feOffset/>
<feGaussianBlur stdDeviation="3.0694"/>
<feColorMatrix type="matrix" values="0 0 0 0 0.105882 0 0 0 0 0.560784 0 0 0 0 0.0980392 0 0 0 1 0"/>
<feBlend mode="normal" in2="effect3_dropShadow_383_1349" result="effect4_dropShadow_383_1349"/>
<feColorMatrix in="SourceAlpha" type="matrix" values="0 0 0 0 0 0 0 0 0 0 0 0 0 0 0 0 0 0 127 0" result="hardAlpha"/>
<feOffset/>
<feGaussianBlur stdDeviation="5.26182"/>
<feColorMatrix type="matrix" values="0 0 0 0 0.105882 0 0 0 0 0.560784 0 0 0 0 0.0980392 0 0 0 1 0"/>
<feBlend mode="normal" in2="effect4_dropShadow_383_1349" result="effect5_dropShadow_383_1349"/>
<feColorMatrix in="SourceAlpha" type="matrix" values="0 0 0 0 0 0 0 0 0 0 0 0 0 0 0 0 0 0 127 0" result="hardAlpha"/>
<feOffset/>
<feGaussianBlur stdDeviation="9.20819"/>
<feColorMatrix type="matrix" values="0 0 0 0 0.105882 0 0 0 0 0.560784 0 0 0 0 0.0980392 0 0 0 1 0"/>
<feBlend mode="normal" in2="effect5_dropShadow_383_1349" result="effect6_dropShadow_383_1349"/>
<feBlend mode="normal" in="SourceGraphic" in2="effect6_dropShadow_383_1349" result="shape"/>
</filter>
</defs>
</svg>
